<?xml version="1.0" encoding="UTF-8"?>
<svg version="1.1" xmlns="http://www.w3.org/2000/svg" width="300" height="151">
<path d="M0 0 C-1.53698751 8.29489166 -3.55376426 16.4495126 -5.625 24.625 C-5.9533469 25.92832953 -6.28147337 27.23171462 -6.609375 28.53515625 C-7.40409321 31.69065501 -8.20101629 34.8455791 -9 38 C-10.890625 38.58984375 -10.890625 38.58984375 -13 39 C-14.75 37.5625 -14.75 37.5625 -16 36 C-21.52144831 38.5296783 -25.16393361 41.5468491 -28 47 C-29.53490304 54.13151113 -29.07147278 61.62825396 -29 68.87890625 C-29.00752474 71.01840182 -29.01856416 73.15788765 -29.03295898 75.29734802 C-29.06131032 80.9052735 -29.04215639 86.51205287 -29.01287842 92.11993408 C-28.99143694 97.85151536 -29.01523927 103.58289275 -29.03515625 109.31445312 C-29.06754703 120.54322689 -29.04971852 131.77131044 -29 143 C-32.97012285 145.20355251 -36.47561979 145.33283674 -40.9375 145.3125 C-41.64068359 145.32861328 -42.34386719 145.34472656 -43.06835938 145.36132812 C-47.61328451 145.36558766 -50.45429051 144.8665312 -54 142 C-54.63923645 139.24751282 -54.63923645 139.24751282 -54.65942383 135.8762207 C-54.67906693 134.61513992 -54.69871002 133.35405914 -54.71894836 132.05476379 C-54.7155049 130.67843485 -54.71151977 129.30210718 -54.70703125 127.92578125 C-54.72014552 126.51757161 -54.73544892 125.1093808 -54.75285339 123.70121765 C-54.79274964 119.99724431 -54.80289665 116.29376248 -54.80688477 112.58959961 C-54.81620774 108.80892991 -54.85361582 105.02855005 -54.88867188 101.24804688 C-54.95329441 93.8320289 -54.98649594 86.41630588 -55 79 C-57.04736869 81.35894698 -59.09405187 83.71848779 -61.140625 86.078125 C-61.71248535 86.73699707 -62.2843457 87.39586914 -62.87353516 88.07470703 C-72.36743461 98.99592872 -72.36743461 98.99592872 -81.54296875 110.18359375 C-82.72826172 111.67052734 -82.72826172 111.67052734 -83.9375 113.1875 C-84.62714844 114.06792969 -85.31679687 114.94835937 -86.02734375 115.85546875 C-87.9439008 117.93901295 -89.39698817 118.95763061 -92 120 C-98.43012216 112.59498835 -104.85578701 105.18606139 -111.25 97.75 C-111.69569336 97.23356934 -112.14138672 96.71713867 -112.60058594 96.18505859 C-115.68484837 92.59194853 -118.69428279 88.94135025 -121.69042969 85.27441406 C-122.4982489 84.28604553 -123.30606812 83.297677 -124.1383667 82.27935791 C-124.75270569 81.5271698 -125.36704468 80.77498169 -126 80 C-126.00586624 80.78482758 -126.01173248 81.56965515 -126.01777649 82.37826538 C-126.07561925 89.76536347 -126.14764649 97.15212099 -126.23571491 104.53891563 C-126.28049154 108.33679468 -126.31973105 112.13456466 -126.34643555 115.93261719 C-126.37239655 119.59622989 -126.41274638 123.25942446 -126.46318626 126.92277908 C-126.47990408 128.32219883 -126.49138769 129.72169099 -126.49761391 131.12119675 C-126.50720084 133.07749558 -126.53692577 135.03366469 -126.56762695 136.98974609 C-126.57873001 138.1044931 -126.58983307 139.21924011 -126.60127258 140.36776733 C-126.73285263 141.23640411 -126.86443268 142.10504089 -127 143 C-130.22739262 145.15159508 -131.09917979 145.24840937 -134.81640625 145.23046875 C-136.20956055 145.22756836 -136.20956055 145.22756836 -137.63085938 145.22460938 C-138.59830078 145.21236328 -139.56574219 145.20011719 -140.5625 145.1875 C-141.53380859 145.18685547 -142.50511719 145.18621094 -143.50585938 145.18554688 C-150.71913485 145.14043257 -150.71913485 145.14043257 -153 144 C-153.09269836 131.32607412 -153.16376445 118.65222896 -153.20724869 105.97803307 C-153.22811943 100.09281816 -153.25642827 94.20783528 -153.30175781 88.32275391 C-153.34523301 82.64284613 -153.36914097 76.96316146 -153.37950897 71.28310013 C-153.38689727 69.11655795 -153.40132486 66.95002792 -153.42292023 64.78358078 C-153.45197586 61.74786787 -153.45595502 58.71307578 -153.45410156 55.67724609 C-153.46848267 54.78244537 -153.48286377 53.88764465 -153.49768066 52.96572876 C-153.46054599 47.34125388 -152.64298614 44.33752688 -149 40 C-144.05741977 36.27371468 -135.99701007 36.64270009 -130.07666016 37.40917969 C-124.439654 39.01293644 -121.39166763 44.54442364 -118.28710938 49.15673828 C-116.19156544 52.15775435 -113.77724621 54.86840583 -111.375 57.625 C-107.17153368 62.56972915 -103.04728489 67.57692035 -98.94921875 72.609375 C-96.65397477 75.42438365 -94.33260241 78.21592616 -92 81 C-88.18511059 79.48601922 -86.36923371 77.27002932 -83.875 74.0625 C-80.70458529 70.07609331 -77.45622104 66.2415477 -74 62.5 C-69.88621091 58.0301488 -66.02912703 53.40955107 -62.21484375 48.68359375 C-60.04367173 46.05291443 -57.79758643 43.52057576 -55.5 41 C-51.53284432 36.64512928 -47.79231056 32.14019585 -44.0859375 27.5625 C-41.44858732 24.32260914 -38.73591241 21.15682201 -36 18 C-36.28875 17.4225 -36.5775 16.845 -36.875 16.25 C-37.91666667 14.16666667 -38.95833333 12.08333333 -40 10 C-32.83035027 7.5446405 -25.60350695 5.37778228 -18.3125 3.3125 C-16.66024414 2.83200195 -16.66024414 2.83200195 -14.97460938 2.34179688 C-13.90662109 2.03951172 -12.83863281 1.73722656 -11.73828125 1.42578125 C-10.77962158 1.15161377 -9.82096191 0.87744629 -8.83325195 0.5949707 C-5.81475903 -0.03889981 -3.07552585 -0.10375884 0 0 Z " fill="#E2403C" transform="translate(288,1)"/>
<path d="M0 0 C7.35494762 -0.06999824 14.70982156 -0.12306099 22.06503677 -0.15543652 C25.48162993 -0.17098758 28.89799258 -0.19202813 32.31445312 -0.22631836 C36.2564808 -0.26562883 40.19842032 -0.2797964 44.140625 -0.29296875 C45.95074066 -0.31619453 45.95074066 -0.31619453 47.79742432 -0.33988953 C60.62461397 -0.34239453 71.03418532 1.96296061 80.8125 10.4375 C87.15131037 17.86296358 87.65287457 25.60586029 87 35 C85.46869841 42.69543937 80.39508388 47.65308652 75 53 C75.51949219 53.4125 76.03898437 53.825 76.57421875 54.25 C83.5068592 59.99089265 88.34117564 65.95186712 90 75 C90.70060705 84.04533747 90.02431401 91.2298005 84.5625 98.625 C79.38347201 104.29850805 71.50632204 107.79874258 64 109 C61.85919958 109.08988951 59.71592841 109.12787631 57.57324219 109.12939453 C56.29551941 109.13254669 55.01779663 109.13569885 53.70135498 109.13894653 C52.31652797 109.1371573 50.93170127 109.13510648 49.546875 109.1328125 C48.12152083 109.13348641 46.69616677 109.13445716 45.27081299 109.13571167 C42.29185892 109.13718265 39.31293493 109.13505211 36.33398438 109.13037109 C32.50821944 109.12465338 28.68252435 109.12796944 24.85676193 109.13394356 C21.91778023 109.13754771 18.97881526 109.13641162 16.03983307 109.13381577 C14.62836957 109.13314716 13.21690456 109.13397261 11.80544281 109.13629532 C9.84002205 109.13882164 7.87459597 109.13429157 5.90917969 109.12939453 C4.22970245 109.12820114 4.22970245 109.12820114 2.51629639 109.12698364 C-0 109 -0 109 -1 108 C-1.08337987 106.5954212 -1.09696362 105.18662278 -1.08229065 103.77964783 C-1.07525116 102.86954453 -1.06821167 101.95944122 -1.06095886 101.02175903 C-1.04801285 100.01547455 -1.03506683 99.00919006 -1.02172852 97.97241211 C-1.01212097 96.91888046 -1.00251343 95.86534882 -0.99261475 94.77989197 C-0.95949274 91.27897735 -0.91921098 87.77818245 -0.87890625 84.27734375 C-0.85461802 81.85739063 -0.83077383 79.43743303 -0.80735779 77.01747131 C-0.74438773 70.63380837 -0.67535791 64.25022455 -0.60510254 57.86663818 C-0.53453549 51.35839454 -0.46964905 44.8500946 -0.40429688 38.34179688 C-0.27511809 25.56113635 -0.13973576 12.78054924 0 0 Z M31 26 C31 31.61 31 37.22 31 43 C34.8053125 43.061875 34.8053125 43.061875 38.6875 43.125 C39.47729248 43.14320801 40.26708496 43.16141602 41.08081055 43.18017578 C46.20844836 43.22037221 50.00475642 42.79571922 53.875 39.3125 C55.55413513 35.86094445 54.97740231 33.64896864 54 30 C52.62430359 27.61553127 52.62430359 27.61553127 50 26 C46.73632487 25.51005178 43.54065897 25.62362314 40.25 25.75 C39.36183594 25.76804687 38.47367188 25.78609375 37.55859375 25.8046875 C35.37193225 25.85171248 33.18582719 25.92345352 31 26 Z M31 66 C31 71.61 31 77.22 31 83 C34.2296738 83.08111739 37.45730014 83.14055592 40.6875 83.1875 C41.59951172 83.21263672 42.51152344 83.23777344 43.45117188 83.26367188 C50.21847673 83.33841171 50.21847673 83.33841171 56 80 C57.56935594 76.86128812 57.35201103 74.46144178 57 71 C55.22910813 68.07380759 55.22910813 68.07380759 52 66 C48.37477371 65.39344029 44.84998287 65.52761996 41.1875 65.6875 C40.20845703 65.71005859 39.22941406 65.73261719 38.22070312 65.75585938 C35.8131427 65.81458036 33.40637246 65.90425574 31 66 Z " fill="#F24A45" transform="translate(28,39)"/>
<path d="M0 0 C1.05832031 -0.01417969 2.11664063 -0.02835938 3.20703125 -0.04296875 C6.1875 0.1875 6.1875 0.1875 10.1875 2.1875 C10.1875 7.1375 10.1875 12.0875 10.1875 17.1875 C11.1775 17.5175 12.1675 17.8475 13.1875 18.1875 C13.0225 18.8475 12.8575 19.5075 12.6875 20.1875 C12.06566701 23.91849794 12.12341074 27.40623378 12.1875 31.1875 C12.8475 31.1875 13.5075 31.1875 14.1875 31.1875 C13.875 33.125 13.875 33.125 13.1875 35.1875 C11.7025 35.6825 11.7025 35.6825 10.1875 36.1875 C10.1875 58.2975 10.1875 80.4075 10.1875 103.1875 C2.5975 103.1875 -4.9925 103.1875 -12.8125 103.1875 C-12.85768169 91.53931397 -12.89437636 79.89118614 -12.91612434 68.24293232 C-12.92656218 62.83420367 -12.94072149 57.42553807 -12.96337891 52.0168457 C-12.98510712 46.7973131 -12.99706863 41.57784117 -13.00225449 36.35826683 C-13.00595027 34.36676262 -13.01316715 32.37526173 -13.02396011 30.38378334 C-13.03847464 27.5947311 -13.04047794 24.80592963 -13.03955078 22.0168457 C-13.04674133 21.19325562 -13.05393188 20.36966553 -13.06134033 19.52111816 C-13.04055524 13.74411844 -12.06538326 10.0668249 -8.8125 5.1875 C-8.461875 4.48625 -8.11125 3.785 -7.75 3.0625 C-5.88929512 -0.65890976 -4.01438373 0.02427076 0 0 Z " fill="#DA3B37" transform="translate(148.8125,40.8125)"/>
<path d="M0 0 C0.66 0 1.32 0 2 0 C2.02312178 12.10841944 2.04091424 24.21683367 2.05181217 36.32527065 C2.05704136 41.94707962 2.06413966 47.56887353 2.07543945 53.19067383 C2.08626706 58.61118277 2.09227656 64.0316772 2.09487724 69.45219612 C2.09673172 71.52514945 2.10035277 73.59810194 2.10573006 75.67104912 C2.1129388 78.56383893 2.11399101 81.45656796 2.11352539 84.34936523 C2.11712067 85.21538864 2.12071594 86.08141205 2.12442017 86.97367859 C2.11405216 92.88594784 2.11405216 92.88594784 1 94 C-0.4887186 94.08669432 -1.981445 94.10703494 -3.47265625 94.09765625 C-4.37177734 94.09443359 -5.27089844 94.09121094 -6.19726562 94.08789062 C-7.61555664 94.07532227 -7.61555664 94.07532227 -9.0625 94.0625 C-10.01189453 94.05798828 -10.96128906 94.05347656 -11.93945312 94.04882812 C-14.29303065 94.0370011 -16.64648477 94.02052025 -19 94 C-19.04638784 85.87218837 -19.0819019 77.74443227 -19.10362434 69.61652088 C-19.11405124 65.8422 -19.12819037 62.06796984 -19.15087891 58.29370117 C-19.17264644 54.64974262 -19.18457686 51.00587121 -19.18975449 47.36185265 C-19.19344323 45.97321896 -19.20064646 44.58458991 -19.21146011 43.19599342 C-19.22602615 41.24765316 -19.22681736 39.29922478 -19.22705078 37.35083008 C-19.231492 36.2427449 -19.23593323 35.13465973 -19.24050903 33.99299622 C-18.99558964 30.94511559 -18.29105494 28.75426785 -17 26 C-17.66 25.67 -18.32 25.34 -19 25 C-18.34 25 -17.68 25 -17 25 C-17.33 23.35 -17.66 21.7 -18 20 C-17.26910156 19.61457031 -16.53820312 19.22914062 -15.78515625 18.83203125 C-12.65994693 16.77631853 -10.76172057 14.60995473 -8.4375 11.6875 C-7.66148437 10.71554688 -6.88546875 9.74359375 -6.0859375 8.7421875 C-4.48331635 6.63537093 -2.98173004 4.54271864 -1.5625 2.3125 C-1.046875 1.549375 -0.53125 0.78625 0 0 Z " fill="#E3403B" transform="translate(256,50)"/>
<path d="M0 0 C2.475 0.495 2.475 0.495 5 1 C4.02098488 3.18395682 3.24902803 4.77715755 1.45070171 6.38638783 C-0.35533439 8.39523763 -0.38129118 9.3375513 -0.39872742 12.0052948 C-0.41126556 12.81717758 -0.42380371 13.62906036 -0.4367218 14.46554565 C-0.43528671 15.35243073 -0.43385162 16.2393158 -0.43237305 17.15307617 C-0.4425647 18.08985703 -0.45275635 19.02663788 -0.46325684 19.99180603 C-0.49348276 23.09225368 -0.50266749 26.19239288 -0.51171875 29.29296875 C-0.52855831 31.44103531 -0.54670756 33.58909196 -0.56611633 35.73713684 C-0.61370091 41.39404203 -0.6434556 47.0509071 -0.66955566 52.70794678 C-0.69931852 58.4792066 -0.74586349 64.25032806 -0.79101562 70.02148438 C-0.87714499 81.347584 -0.94444742 92.67371203 -1 104 C-4.97012285 106.20355251 -8.47561979 106.33283674 -12.9375 106.3125 C-13.64068359 106.32861328 -14.34386719 106.34472656 -15.06835938 106.36132812 C-19.61328451 106.36558766 -22.45429051 105.8665312 -26 103 C-26.63923645 100.24751282 -26.63923645 100.24751282 -26.65942383 96.8762207 C-26.68888847 94.98459953 -26.68888847 94.98459953 -26.71894836 93.05476379 C-26.7155049 91.67843485 -26.71151977 90.30210718 -26.70703125 88.92578125 C-26.72014552 87.51757161 -26.73544892 86.1093808 -26.75285339 84.70121765 C-26.79274964 80.99724431 -26.80289665 77.29376248 -26.80688477 73.58959961 C-26.81620774 69.80892991 -26.85361582 66.02855005 -26.88867188 62.24804688 C-26.95329441 54.8320289 -26.98649594 47.41630588 -27 40 C-29.31 42.64 -31.62 45.28 -34 48 C-36 45 -36 45 -36 42 C-35.34 42 -34.68 42 -34 42 C-33.67 41.34 -33.34 40.68 -33 40 C-33.66 40 -34.32 40 -35 40 C-35 39.01 -35 38.02 -35 37 C-34.34 37 -33.68 37 -33 37 C-32.67 36.34 -32.34 35.68 -32 35 C-29.9375 34.375 -29.9375 34.375 -28 34 C-28 33.34 -28 32.68 -28 32 C-26.68 32 -25.36 32 -24 32 C-23.67 55.43 -23.34 78.86 -23 103 C-16.4 103 -9.8 103 -3 103 C-2.97494385 100.0417627 -2.9498877 97.08352539 -2.92407227 94.03564453 C-2.84073588 84.28064905 -2.75203245 74.52570775 -2.66066074 64.77078438 C-2.60540779 58.85420754 -2.551984 52.93762578 -2.50268555 47.02099609 C-2.45507699 41.31514953 -2.40273548 35.60936451 -2.34705925 29.90359116 C-2.32661977 27.7226298 -2.30790937 25.54165156 -2.29092598 23.36066055 C-2.26691722 20.31475953 -2.23685785 17.26897558 -2.20532227 14.22314453 C-2.1995668 13.31396271 -2.19381134 12.40478088 -2.18788147 11.4680481 C-2.11405216 5.22810432 -2.11405216 5.22810432 -1 3 C-0.34 3 0.32 3 1 3 C0.505 1.515 0.505 1.515 0 0 Z " fill="#EA8986" transform="translate(260,40)"/>
<path d="M0 0 C1.18916016 0.01353516 1.18916016 0.01353516 2.40234375 0.02734375 C4.35169281 0.05082988 6.30088575 0.08669863 8.25 0.125 C8.25 1.115 8.25 2.105 8.25 3.125 C7.92 2.795 7.59 2.465 7.25 2.125 C4.98276231 1.97248207 2.70968836 1.9030806 0.4375 1.875 C-0.80644531 1.84921875 -2.05039063 1.8234375 -3.33203125 1.796875 C-6.90484298 2.13986493 -8.2647318 2.60309394 -10.75 5.125 C-11.40213292 7.14963255 -11.40213292 7.14963255 -11.75 9.125 C-12.41 9.785 -13.07 10.445 -13.75 11.125 C-15.10683546 15.27503908 -14.92524847 19.5185609 -14.95532227 23.84082031 C-14.97017166 25.1584285 -14.97017166 25.1584285 -14.98532104 26.50265503 C-15.01687961 29.40278438 -15.0416712 32.30293009 -15.06640625 35.203125 C-15.08698065 37.21523461 -15.10797725 39.22733994 -15.12937927 41.23944092 C-15.18454976 46.53300512 -15.23398121 51.82660801 -15.28222656 57.12023926 C-15.33247824 62.52290282 -15.38814517 67.92551028 -15.44335938 73.328125 C-15.55087954 83.92703716 -15.6518377 94.52599704 -15.75 105.125 C-8.16 105.125 -0.57 105.125 7.25 105.125 C7.25 83.015 7.25 60.905 7.25 38.125 C7.91 38.125 8.57 38.125 9.25 38.125 C10.35269814 41.43309441 10.35321363 43.82637694 10.31933594 47.30883789 C10.30892273 48.58348404 10.29850952 49.85813019 10.28778076 51.17140198 C10.27053259 52.56349371 10.25271708 53.9555785 10.234375 55.34765625 C10.21768196 56.77347275 10.20101979 58.19928961 10.18438721 59.62510681 C10.1479334 62.61187374 10.1067055 65.59853621 10.06298828 68.58520508 C10.00790132 72.41756728 9.97142585 76.24986804 9.93935776 80.08248234 C9.91153984 83.02596096 9.87048953 85.96914703 9.82575226 88.91241264 C9.80652515 90.32578186 9.79224546 91.73922717 9.78295135 93.15269661 C9.76867186 95.12546702 9.73395653 97.09805785 9.69824219 99.07055664 C9.68412292 100.19401993 9.67000366 101.31748322 9.65545654 102.47499084 C9.52165588 103.34949387 9.38785522 104.22399689 9.25 105.125 C6.02260738 107.27659508 5.15082021 107.37340937 1.43359375 107.35546875 C0.50482422 107.35353516 -0.42394531 107.35160156 -1.38085938 107.34960938 C-2.34830078 107.33736328 -3.31574219 107.32511719 -4.3125 107.3125 C-5.28380859 107.31185547 -6.25511719 107.31121094 -7.25585938 107.31054688 C-14.46913485 107.26543257 -14.46913485 107.26543257 -16.75 106.125 C-16.84269836 93.45107412 -16.91376445 80.77722896 -16.95724869 68.10303307 C-16.97811943 62.21781816 -17.00642827 56.33283528 -17.05175781 50.44775391 C-17.09523301 44.76784613 -17.11914097 39.08816146 -17.12950897 33.40810013 C-17.13689727 31.24155795 -17.15132486 29.07502792 -17.17292023 26.90858078 C-17.20197586 23.87286787 -17.20595502 20.83807578 -17.20410156 17.80224609 C-17.21848267 16.90744537 -17.23286377 16.01264465 -17.24768066 15.09072876 C-17.21052969 9.46378432 -16.38805485 6.46780977 -12.75 2.125 C-9.11426627 -0.79359359 -4.43829141 -0.09568456 0 0 Z " fill="#F1C0C1" transform="translate(151.75,38.875)"/>
<path d="M0 0 C7.35494762 -0.06999824 14.70982156 -0.12306099 22.06503677 -0.15543652 C25.48162993 -0.17098758 28.89799258 -0.19202813 32.31445312 -0.22631836 C36.2564808 -0.26562883 40.19842032 -0.2797964 44.140625 -0.29296875 C45.95074066 -0.31619453 45.95074066 -0.31619453 47.79742432 -0.33988953 C56.87052333 -0.3416614 66.75797847 -0.07600425 74 6 C72.02 6 70.04 6 68 6 C68 5.34 68 4.68 68 4 C60.46713791 3.00948327 53.02614082 2.7872956 45.43359375 2.68359375 C44.30248169 2.66494263 43.17136963 2.6462915 42.00598145 2.6270752 C37.81656034 2.5592343 33.62702199 2.49879555 29.4375 2.4375 C20.053125 2.293125 10.66875 2.14875 1 2 C1 36.98 1 71.96 1 108 C21.79 108 42.58 108 64 108 C64 108.33 64 108.66 64 109 C55.67271053 109.02312684 47.34543437 109.04091683 39.01812077 109.05181217 C35.15179882 109.05704026 31.28549879 109.06413654 27.41918945 109.07543945 C23.69096599 109.086271 19.96276366 109.0922774 16.23452568 109.09487724 C14.80910344 109.09673101 13.38368241 109.10035071 11.95826912 109.10573006 C9.96836592 109.11294393 7.97844166 109.11340808 5.98852539 109.11352539 C4.85379288 109.115746 3.71906036 109.11796661 2.54994202 109.12025452 C0 109 0 109 -1 108 C-1.08337987 106.5954212 -1.09696362 105.18662278 -1.08229065 103.77964783 C-1.07525116 102.86954453 -1.06821167 101.95944122 -1.06095886 101.02175903 C-1.04801285 100.01547455 -1.03506683 99.00919006 -1.02172852 97.97241211 C-1.01212097 96.91888046 -1.00251343 95.86534882 -0.99261475 94.77989197 C-0.95949274 91.27897735 -0.91921098 87.77818245 -0.87890625 84.27734375 C-0.85461802 81.85739063 -0.83077383 79.43743303 -0.80735779 77.01747131 C-0.74438773 70.63380837 -0.67535791 64.25022455 -0.60510254 57.86663818 C-0.53453549 51.35839454 -0.46964905 44.8500946 -0.40429688 38.34179688 C-0.27511809 25.56113635 -0.13973576 12.78054924 0 0 Z " fill="#FBBAB8" transform="translate(28,39)"/>
<path d="M0 0 C5.60193445 1.35804471 8.90345917 5.38194898 12 10 C14.00918229 14.70924129 15 18.87832131 15 24 C13.35 23.67 11.7 23.34 10 23 C10 22.34 10 21.68 10 21 C9.30132812 20.87882812 8.60265625 20.75765625 7.8828125 20.6328125 C6.97273438 20.46523437 6.06265625 20.29765625 5.125 20.125 C4.22007813 19.96257812 3.31515625 19.80015625 2.3828125 19.6328125 C0 19 0 19 -2 17 C-1.28263672 16.39285156 -1.28263672 16.39285156 -0.55078125 15.7734375 C2.13603076 12.70086155 2.02773149 8.95866985 2 5 C1.21136479 2.05338594 1.21136479 2.05338594 0 0 Z " fill="#CE3735" transform="translate(81,65)"/>
<path d="M0 0 C2.475 0.495 2.475 0.495 5 1 C4.02098488 3.18395682 3.24902803 4.77715755 1.45070171 6.38638783 C-0.35533439 8.39523763 -0.38129118 9.3375513 -0.39872742 12.0052948 C-0.41126556 12.81717758 -0.42380371 13.62906036 -0.4367218 14.46554565 C-0.43528671 15.35243073 -0.43385162 16.2393158 -0.43237305 17.15307617 C-0.4425647 18.08985703 -0.45275635 19.02663788 -0.46325684 19.99180603 C-0.49348276 23.09225368 -0.50266749 26.19239288 -0.51171875 29.29296875 C-0.52855831 31.44103531 -0.54670756 33.58909196 -0.56611633 35.73713684 C-0.61370091 41.39404203 -0.6434556 47.0509071 -0.66955566 52.70794678 C-0.69931852 58.4792066 -0.74586349 64.25032806 -0.79101562 70.02148438 C-0.87714499 81.347584 -0.94444742 92.67371203 -1 104 C-4.99304281 106.22400117 -8.51377486 106.29876332 -13 106.25 C-14.06734375 106.26160156 -14.06734375 106.26160156 -15.15625 106.2734375 C-18.92429832 106.25937762 -21.80489203 106.09678961 -25 104 C-22.59940183 102.79970092 -21.10639351 102.88540257 -18.4296875 102.90234375 C-17.53378906 102.90556641 -16.63789063 102.90878906 -15.71484375 102.91210938 C-14.30912109 102.92467773 -14.30912109 102.92467773 -12.875 102.9375 C-11.93011719 102.94201172 -10.98523438 102.94652344 -10.01171875 102.95117188 C-7.67441613 102.96297643 -5.33723939 102.97944241 -3 103 C-2.98969254 101.77668976 -2.97938507 100.55337952 -2.96876526 99.29299927 C-2.87116797 87.78554546 -2.76844708 76.27814739 -2.66066074 64.77078438 C-2.60540779 58.85420754 -2.551984 52.93762578 -2.50268555 47.02099609 C-2.45507699 41.31514953 -2.40273548 35.60936451 -2.34705925 29.90359116 C-2.32661977 27.7226298 -2.30790937 25.54165156 -2.29092598 23.36066055 C-2.26691722 20.31475953 -2.23685785 17.26897558 -2.20532227 14.22314453 C-2.1995668 13.31396271 -2.19381134 12.40478088 -2.18788147 11.4680481 C-2.11405216 5.22810432 -2.11405216 5.22810432 -1 3 C-0.34 3 0.32 3 1 3 C0.67 2.01 0.34 1.02 0 0 Z " fill="#F5B8B6" transform="translate(260,40)"/>
<path d="M0 0 C1 2 1 2 0.375 5 C-1 8 -1 8 -3.4375 9.1875 C-4.283125 9.455625 -5.12875 9.72375 -6 10 C-7.85602615 11.27159652 -7.85602615 11.27159652 -9 13 C-9 14.32 -9 15.64 -9 17 C-10.5 19.75 -10.5 19.75 -12 22 C-11.34 22.99 -10.68 23.98 -10 25 C-13 26 -13 26 -16 25 C-16.495 25.721875 -16.99 26.44375 -17.5 27.1875 C-19.70051976 29.66308473 -21.03873588 30.72903078 -23.8125 32.3125 C-28.50486861 35.05925236 -31.6473244 38.77772417 -35 43 C-35 38.83048082 -33.27042164 37.80585535 -30.4375 34.8125 C-29.50989972 33.81949306 -28.58281835 32.82600115 -27.65625 31.83203125 C-26.7796875 30.89746094 -25.903125 29.96289062 -25 29 C-21.07371138 24.64729069 -17.31700798 20.17783886 -13.625 15.625 C-9.25901357 10.25205629 -4.6798763 5.10029072 0 0 Z " fill="#F48B88" transform="translate(250,22)"/>
<path d="M0 0 C-1.53698751 8.29489166 -3.55376426 16.4495126 -5.625 24.625 C-5.9533469 25.92832953 -6.28147337 27.23171462 -6.609375 28.53515625 C-7.40409321 31.69065501 -8.20101629 34.8455791 -9 38 C-10.98 38.495 -10.98 38.495 -13 39 C-13.99 37.68 -14.98 36.36 -16 35 C-14.35 35.66 -12.7 36.32 -11 37 C-10.92652344 35.62714844 -10.92652344 35.62714844 -10.8515625 34.2265625 C-10.77679688 33.03804687 -10.70203125 31.84953125 -10.625 30.625 C-10.52058594 28.84996094 -10.52058594 28.84996094 -10.4140625 27.0390625 C-10 24 -10 24 -8 22 C-5.8275892 15.48276761 -4.51013549 8.69493399 -3 2 C-3.66 2 -4.32 2 -5 2 C-5 2.66 -5 3.32 -5 4 C-11.3778552 5.17293889 -17.50321562 6.29530838 -24 6 C-20.51477601 4.07532407 -16.94127208 2.98294996 -13.125 1.875 C-11.93132812 1.52179687 -10.73765625 1.16859375 -9.5078125 0.8046875 C-6.19308582 0.04429363 -3.38360364 -0.15521118 0 0 Z " fill="#F6B4B2" transform="translate(288,1)"/>
<path d="M0 0 C0.66 0 1.32 0 2 0 C3.10998592 3.32995776 3.08370802 5.71029068 3.02172852 9.21557617 C3.00163223 10.4966777 2.98153595 11.77777924 2.96083069 13.09770203 C2.93363429 14.49612645 2.90632344 15.89454864 2.87890625 17.29296875 C2.85460033 18.72356918 2.830757 20.15417754 2.80735779 21.58479309 C2.74456378 25.34794148 2.67548395 29.11094929 2.60510254 32.8739624 C2.53437674 36.714738 2.4695852 40.55561318 2.40429688 44.39648438 C2.27534492 51.93109972 2.13975344 59.46557644 2 67 C1.34 67 0.68 67 0 67 C0 44.89 0 22.78 0 0 Z " fill="#EBAEAC" transform="translate(159,77)"/>
<path d="M0 0 C6.08666919 2.47975411 9.48663538 7.09359315 12 13 C14.16243365 20.01289246 13.99420793 28.42910782 11.06640625 35.17578125 C9.13549343 38.47884457 6.64903902 41.25665862 4 44 C3.34 43.67 2.68 43.34 2 43 C2.52268466 40.23723823 3.10869587 37.6739124 4 35 C5.485 34.505 5.485 34.505 7 34 C7.66 34.33 8.32 34.66 9 35 C10.54024779 26.14357522 11.44106417 16.2027118 7 8 C4.9946849 7.34364803 4.9946849 7.34364803 3 7 C1.8125 4.5625 1.8125 4.5625 1 2 C0.67 1.34 0.34 0.68 0 0 Z " fill="#F39E98" transform="translate(102,45)"/>
<path d="M0 0 C0.33 0 0.66 0 1 0 C1.33 4.29 1.66 8.58 2 13 C6.87482574 12.88127872 11.7494672 12.7570007 16.62402344 12.62768555 C18.28056031 12.58450951 19.93713672 12.54282303 21.59375 12.50268555 C23.9818918 12.4445607 26.3698377 12.38099052 28.7578125 12.31640625 C29.85973434 12.29133751 29.85973434 12.29133751 30.98391724 12.26576233 C35.06614897 12.14949196 39.01577834 11.93010784 43 11 C44.25827123 9.15017528 44.25827123 9.15017528 45 7 C46.625 5.25 46.625 5.25 48 4 C48.495 5.485 48.495 5.485 49 7 C47.04706495 10.71987629 44.83744395 12.33636409 40.96484375 13.64453125 C33.10637819 15.8670269 24.96400363 15.3174143 16.875 15.1875 C15.23438731 15.17242322 13.59376119 15.15874012 11.953125 15.14648438 C7.96814067 15.1162951 3.9850541 15.05753821 0 15 C0 10.05 0 5.1 0 0 Z " fill="#B43D3C" transform="translate(29,132)"/>
<path d="M0 0 C1.65 0 3.3 0 5 0 C4.67 0.99 4.34 1.98 4 3 C4.51949219 3.4125 5.03898437 3.825 5.57421875 4.25 C12.5068592 9.99089265 17.34117564 15.95186712 19 25 C19.56937993 32.35110163 19.26967753 38.33488811 16 45 C15.01 45.495 15.01 45.495 14 46 C14 44.02 14 42.04 14 40 C14.99 40 15.98 40 17 40 C16.505 30.1 16.505 30.1 16 20 C15.34 20 14.68 20 14 20 C13.68289062 19.26394531 13.36578125 18.52789062 13.0390625 17.76953125 C9.40291509 10.16576442 5.9388908 6.83980086 -2 4 C-1.34 2.68 -0.68 1.36 0 0 Z " fill="#F5A7A3" transform="translate(99,89)"/>
<path d="M0 0 C0 0.99 0 1.98 0 3 C-1.50390625 4.5 -1.50390625 4.5 -3.5625 6 C-4.22378906 6.495 -4.88507813 6.99 -5.56640625 7.5 C-11.39655835 11.09354479 -16.06282455 12.44741129 -22.90234375 12.29296875 C-23.6249086 12.28872391 -24.34747345 12.28447906 -25.0919342 12.28010559 C-27.37418693 12.26346418 -29.65551933 12.22584248 -31.9375 12.1875 C-33.49542985 12.17243423 -35.0533737 12.15874916 -36.61132812 12.14648438 C-40.40790057 12.11360882 -44.20379487 12.0619309 -48 12 C-45.2535879 10.58655348 -42.76233029 9.57787707 -39.75 8.875 C-38.5125 8.58625 -37.275 8.2975 -36 8 C-36 8.33 -36 8.66 -36 9 C-27.75 9 -19.5 9 -11 9 C-11 8.01 -11 7.02 -11 6 C-10.01 6 -9.02 6 -8 6 C-8 5.34 -8 4.68 -8 4 C-7.236875 3.896875 -6.47375 3.79375 -5.6875 3.6875 C-2.82940576 2.95635961 -1.84257115 2.23048087 0 0 Z " fill="#E7605D" transform="translate(112,135)"/>
<path d="M0 0 C0.33 0 0.66 0 1 0 C1 1.65 1 3.3 1 5 C4.70920229 4.91870118 8.41681099 4.80589399 12.125 4.6875 C13.69507812 4.65366211 13.69507812 4.65366211 15.296875 4.61914062 C20.97808708 4.42137691 25.17767801 4.11198288 30 1 C29.125 8.75 29.125 8.75 28 11 C27.2575 10.690625 26.515 10.38125 25.75 10.0625 C21.59199653 8.45599866 18.21875553 7.87870059 13.75 7.9375 C12.41195312 7.95103516 12.41195312 7.95103516 11.046875 7.96484375 C10.37140625 7.97644531 9.6959375 7.98804687 9 8 C8.67 8.66 8.34 9.32 8 10 C7.34 10 6.68 10 6 10 C5.67 9.34 5.34 8.68 5 8 C4.01 8.33 3.02 8.66 2 9 C0 7 0 7 -0.125 3.375 C-0.08375 2.26125 -0.0425 1.1475 0 0 Z " fill="#BF4C4B" transform="translate(56,118)"/>
<path d="M0 0 C4.97758381 3.70128027 8.62106718 8.03260315 12.4765625 12.875 C14.27579707 15.12946259 16.12947442 17.32451806 18.0234375 19.5 C18.5285083 20.08265625 19.0335791 20.6653125 19.55395508 21.265625 C20.54570187 22.40583687 21.54280272 23.54141778 22.5456543 24.671875 C26 28.66702451 26 28.66702451 26 32 C24.34487752 30.59419724 22.70117794 29.17493734 21.0625 27.75 C20.14597656 26.96109375 19.22945312 26.1721875 18.28515625 25.359375 C15.99159649 22.99132356 15.59609765 22.08886962 15 19 C12.50965614 17.70339566 12.50965614 17.70339566 10 17 C10 16.01 10 15.02 10 14 C9.01 14 8.02 14 7 14 C6.67 12.35 6.34 10.7 6 9 C5.34 9 4.68 9 4 9 C4 8.34 4 7.68 4 7 C3.34 7 2.68 7 2 7 C2 6.34 2 5.68 2 5 C1.34 4.67 0.68 4.34 0 4 C0 2.68 0 1.36 0 0 Z " fill="#D06D6D" transform="translate(166,48)"/>
<path d="M0 0 C8.04141327 -0.0931181 16.08259727 -0.16397484 24.12441826 -0.20724869 C27.8595079 -0.22802924 31.5942258 -0.25616923 35.32910156 -0.30175781 C38.94069135 -0.34556031 42.551926 -0.36920859 46.16376114 -0.37950897 C47.53434964 -0.38683928 48.90492106 -0.40115198 50.27535629 -0.42292023 C58.71850792 -0.55156882 65.43105308 0.09336638 73 4 C73 4.33 73 4.66 73 5 C71.02 5 69.04 5 67 5 C67 4.34 67 3.68 67 3 C59.46717379 2.00948799 52.02601054 1.78741092 44.43359375 1.68359375 C42.52163963 1.6524221 42.52163963 1.6524221 40.57106018 1.62062073 C37.21254549 1.56662126 33.8540179 1.5162817 30.49542236 1.46777344 C27.05614366 1.41717931 23.61694409 1.36169291 20.17773438 1.30664062 C13.4518863 1.19995909 6.7259783 1.09810865 0 1 C0 0.67 0 0.34 0 0 Z " fill="#F67D79" transform="translate(29,40)"/>
<path d="M0 0 C6.66666667 3.33333333 6.66666667 3.33333333 8.3125 6.625 C8.6528125 7.800625 8.6528125 7.800625 9 9 C11.16497103 11.16497103 12.19944457 11.43940717 15.0625 12.25 C17.22265625 13.01171875 17.22265625 13.01171875 19 14 C19.94845432 16.90464134 20 18.99548928 20 22 C21.45833358 23.62514468 21.45833358 23.62514468 23 25 C22.67 25.66 22.34 26.32 22 27 C16.0707983 20.60042322 10.36469765 14.12325224 4.91015625 7.3125 C3.10189882 5.03384513 3.10189882 5.03384513 1.24609375 3.3125 C0 2 0 2 0 0 Z " fill="#D17373" transform="translate(164,82)"/>
<path d="M0 0 C4.88581628 1.18444031 7.45652132 4.2782877 10.7421875 7.83203125 C12 10 12 10 11.6953125 12.76171875 C11.46585938 13.50035156 11.23640625 14.23898438 11 15 C10.34 15 9.68 15 9 15 C9 14.34 9 13.68 9 13 C7.35 13.66 5.7 14.32 4 15 C2.96840374 11.90521121 3.02517138 10.47368607 3.4375 7.3125 C3.53933594 6.50425781 3.64117187 5.69601563 3.74609375 4.86328125 C3.87177734 3.94095703 3.87177734 3.94095703 4 3 C2.68 2.67 1.36 2.34 0 2 C0 1.34 0 0.68 0 0 Z " fill="#B52726" transform="translate(81,65)"/>
<path d="M0 0 C2.51083114 1.25541557 2.87125446 2.50063488 4 5 C1 6 1 6 -2 5 C-2.495 5.721875 -2.99 6.44375 -3.5 7.1875 C-5.70051976 9.66308473 -7.03873588 10.72903078 -9.8125 12.3125 C-14.50486861 15.05925236 -17.6473244 18.77772417 -21 23 C-21 17.32090599 -14.84365182 12.9201968 -11 9 C-7.50031466 5.69896124 -4.00458759 2.66972506 0 0 Z " fill="#F7817B" transform="translate(236,42)"/>
<path d="M0 0 C0.33 0 0.66 0 1 0 C1.125 6.75 1.125 6.75 0 9 C-1.051875 8.7525 -2.10375 8.505 -3.1875 8.25 C-7.05366249 7.6110158 -7.05366249 7.6110158 -9.9375 9.9375 C-10.618125 10.618125 -11.29875 11.29875 -12 12 C-12.625 9.125 -12.625 9.125 -13 6 C-10.23522547 3.23522547 -7.8033247 3.47541559 -4 3 C-3.34 2.67 -2.68 2.34 -2 2 C-1.34 2.33 -0.68 2.66 0 3 C0 2.01 0 1.02 0 0 Z " fill="#F4504A" transform="translate(277,29)"/>
<path d="M0 0 C7.59 0 15.18 0 23 0 C27.5 7.875 27.5 7.875 27 13 C26.67 13 26.34 13 26 13 C25.5359375 11.3603125 25.5359375 11.3603125 25.0625 9.6875 C24.41662103 7.44592006 23.7376883 5.2130649 23 3 C20.27498092 2.09166031 18.37766029 1.81640015 15.55078125 1.68359375 C14.78677002 1.64548584 14.02275879 1.60737793 13.2355957 1.56811523 C12.27097412 1.52501221 11.30635254 1.48190918 10.3125 1.4375 C7.239375 1.293125 4.16625 1.14875 1 1 C1 7.27 1 13.54 1 20 C0.67 20 0.34 20 0 20 C0 13.4 0 6.8 0 0 Z " fill="#EF8380" transform="translate(57,63)"/>
<path d="M0 0 C0.80179688 0.00451172 1.60359375 0.00902344 2.4296875 0.01367188 C4.41149006 0.02546832 6.39325433 0.04340395 8.375 0.0625 C8.375 1.0525 8.375 2.0425 8.375 3.0625 C8.045 2.7325 7.715 2.4025 7.375 2.0625 C5.10776231 1.90998207 2.83468836 1.8405806 0.5625 1.8125 C-0.68144531 1.78671875 -1.92539063 1.7609375 -3.20703125 1.734375 C-6.77984298 2.07736493 -8.1397318 2.54059394 -10.625 5.0625 C-11.27713292 7.08713255 -11.27713292 7.08713255 -11.625 9.0625 C-12.285 9.7225 -12.945 10.3825 -13.625 11.0625 C-14.32248583 12.37997324 -14.99459957 13.71164193 -15.625 15.0625 C-16.41012397 7.05423554 -16.41012397 7.05423554 -13.25 3.0625 C-8.81738823 -0.31472802 -5.40217152 -0.05700343 0 0 Z " fill="#F4948F" transform="translate(151.625,38.9375)"/>
<path d="M0 0 C0 0.66 0 1.32 0 2 C-3.03525486 4.02350324 -4.19426202 4.32124018 -7.6875 4.625 C-8.49574219 4.69976563 -9.30398437 4.77453125 -10.13671875 4.8515625 C-11.05904297 4.92503906 -11.05904297 4.92503906 -12 5 C-11.49726563 5.90685547 -11.49726563 5.90685547 -10.984375 6.83203125 C-9.7122316 9.63377565 -10.06428594 11.11488164 -11 14 C-11.99 14.495 -11.99 14.495 -13 15 C-12.7525 14.2575 -12.505 13.515 -12.25 12.75 C-12.1675 11.8425 -12.085 10.935 -12 10 C-13.83358335 7.66545339 -13.83358335 7.66545339 -16 6 C-15.67 5.01 -15.34 4.02 -15 3 C-12.63671875 2.05078125 -12.63671875 2.05078125 -9.6875 1.3125 C-8.72199219 1.06113281 -7.75648438 0.80976562 -6.76171875 0.55078125 C-4 0 -4 0 0 0 Z " fill="#F4A19F" transform="translate(264,7)"/>
<path d="M0 0 C0.99 0 1.98 0 3 0 C2.05193034 3.50785773 1.43648746 4.74207559 -1.75 6.625 C-2.8225 7.07875 -3.895 7.5325 -5 8 C-6.11375 8.556875 -7.2275 9.11375 -8.375 9.6875 C-9.24125 10.120625 -10.1075 10.55375 -11 11 C-11 9.68 -11 8.36 -11 7 C-11.66 7 -12.32 7 -13 7 C-13.33 5.02 -13.66 3.04 -14 1 C-12.35 2.65 -10.7 4.3 -9 6 C-8.401875 5.67 -7.80375 5.34 -7.1875 5 C-5 4 -5 4 -2 4 C-1.34 2.68 -0.68 1.36 0 0 Z " fill="#D73C37" transform="translate(205,78)"/>
<path d="M0 0 C5.71562208 4.37792329 5.71562208 4.37792329 7 7.1875 C7 7.785625 7 8.38375 7 9 C5 11 5 11 0 13 C0 8.71 0 4.42 0 0 Z " fill="#B62B29" transform="translate(160,43)"/>
<path d="M0 0 C1.60026291 3.20052582 0.35727163 6.36780478 -0.3125 9.75 C-0.44333984 10.45382813 -0.57417969 11.15765625 -0.70898438 11.8828125 C-1.51091205 16.0512868 -2.55815187 19.99556589 -4 24 C-5.875 23.6875 -5.875 23.6875 -8 23 C-8.66 22.01 -9.32 21.02 -10 20 C-7.525 20.99 -7.525 20.99 -5 22 C-4.95101563 21.08476563 -4.90203125 20.16953125 -4.8515625 19.2265625 C-4.77679688 18.03804687 -4.70203125 16.84953125 -4.625 15.625 C-4.55539062 14.44164062 -4.48578125 13.25828125 -4.4140625 12.0390625 C-4 9 -4 9 -2 7 C-1.28072705 4.68234271 -0.6090107 2.34904126 0 0 Z " fill="#F38987" transform="translate(282,16)"/>
<path d="M0 0 C1.98 0 3.96 0 6 0 C4.37633534 3.24732932 1.24612161 3.70155136 -2 5 C-2 5.99 -2 6.98 -2 8 C-2.66 8 -3.32 8 -4 8 C-4.33 7.34 -4.66 6.68 -5 6 C-5.99 5.67 -6.98 5.34 -8 5 C-7.938125 6.423125 -7.938125 6.423125 -7.875 7.875 C-8 11 -8 11 -10 13 C-10.66 10.36 -11.32 7.72 -12 5 C-11.38511719 4.86722656 -10.77023438 4.73445312 -10.13671875 4.59765625 C-9.32847656 4.42105469 -8.52023438 4.24445312 -7.6875 4.0625 C-6.48673828 3.80146484 -6.48673828 3.80146484 -5.26171875 3.53515625 C-2.854599 3.00113841 -2.854599 3.00113841 0 2 C0 1.34 0 0.68 0 0 Z " fill="#F5554F" transform="translate(264,7)"/>
<path d="M0 0 C2.80045623 3.14591933 3.35261589 5.067064 3.1875 9.25 C3.16042969 10.14203125 3.13335937 11.0340625 3.10546875 11.953125 C3.07066406 12.62859375 3.03585938 13.3040625 3 14 C1.35 14.33 -0.3 14.66 -2 15 C-1.67 14.01 -1.34 13.02 -1 12 C-0.76835942 7.75325612 -0.66785576 4.64397537 -3 1 C-2.01 0.67 -1.02 0.34 0 0 Z " fill="#F38381" transform="translate(85,105)"/>
<path d="M0 0 C1.65 0.33 3.3 0.66 5 1 C4.02322552 3.17895845 3.25668894 4.77159276 1.45776367 6.37231445 C-0.37441325 8.41805612 -0.41547934 9.51651736 -0.51171875 12.23046875 C-0.54716797 13.03291016 -0.58261719 13.83535156 -0.61914062 14.66210938 C-0.64169922 15.49548828 -0.66425781 16.32886719 -0.6875 17.1875 C-0.72166016 18.03248047 -0.75582031 18.87746094 -0.79101562 19.74804688 C-0.87341471 21.83156649 -0.93838645 23.91576216 -1 26 C-1.33 26 -1.66 26 -2 26 C-2.02894547 22.54168414 -2.04678 19.08339928 -2.0625 15.625 C-2.07087891 14.64015625 -2.07925781 13.6553125 -2.08789062 12.640625 C-2.09111328 11.69960938 -2.09433594 10.75859375 -2.09765625 9.7890625 C-2.10289307 8.91975098 -2.10812988 8.05043945 -2.11352539 7.15478516 C-2 5 -2 5 -1 3 C-0.34 3 0.32 3 1 3 C0.67 2.01 0.34 1.02 0 0 Z " fill="#E99C9C" transform="translate(260,40)"/>
<path d="M0 0 C12.28609865 -0.92017937 12.28609865 -0.92017937 16.48828125 1.3359375 C18.375 3 18.375 3 21 6 C20.67 6.66 20.34 7.32 20 8 C18.68 6.68 17.36 5.36 16 4 C15.67 7.96 15.34 11.92 15 16 C14.67 16 14.34 16 14 16 C13.67 11.71 13.34 7.42 13 3 C12.01 3 11.02 3 10 3 C10 2.34 10 1.68 10 1 C6.7 1 3.4 1 0 1 C0 0.67 0 0.34 0 0 Z " fill="#E66A65" transform="translate(145,40)"/>
<path d="M0 0 C0 0.99 0 1.98 0 3 C-4.74150963 7.72919402 -11.17369571 11.75576781 -17.9375 12.1875 C-18.618125 12.125625 -19.29875 12.06375 -20 12 C-17.03312999 10.35173889 -14.34373475 9.55728913 -11 9 C-11 8.01 -11 7.02 -11 6 C-10.01 6 -9.02 6 -8 6 C-8 5.34 -8 4.68 -8 4 C-7.236875 3.896875 -6.47375 3.79375 -5.6875 3.6875 C-2.82940576 2.95635961 -1.84257115 2.23048087 0 0 Z " fill="#F8A5A2" transform="translate(112,135)"/>
<path d="M0 0 C6.60398708 4.95299031 12.56919701 11.42072605 16 19 C14.72689688 18.06558465 13.456612 17.12732889 12.1875 16.1875 C11.47980469 15.66542969 10.77210938 15.14335938 10.04296875 14.60546875 C6.25846901 11.63141638 4.78347481 9.45868703 3 5 C2.01904252 3.98131338 1.02297922 2.97648017 0 2 C0 1.34 0 0.68 0 0 Z " fill="#EAA8A6" transform="translate(177,61)"/>
<path d="M0 0 C9.30879863 -0.44682233 16.56884314 -0.44371561 25 4 C25 4.33 25 4.66 25 5 C23.02 5 21.04 5 19 5 C19 4.34 19 3.68 19 3 C12.67094142 2.28542887 6.33881314 1.62197123 0 1 C0 0.67 0 0.34 0 0 Z " fill="#F49A9A" transform="translate(77,40)"/>
<path d="M0 0 C4.99427574 2.03470493 8.09646599 5.52422778 10.875 10.0625 C12.01784488 13.04659497 12.22077078 14.11454179 11 17 C10.67 15.02 10.34 13.04 10 11 C9.01 10.67 8.02 10.34 7 10 C7 9.34 7 8.68 7 8 C6.071875 7.9071875 6.071875 7.9071875 5.125 7.8125 C3 7 3 7 1.8125 4.5625 C1.544375 3.716875 1.27625 2.87125 1 2 C0.67 1.34 0.34 0.68 0 0 Z " fill="#F7A09E" transform="translate(102,45)"/>
<path d="M0 0 C2.97 0.495 2.97 0.495 6 1 C5.8125 3.3125 5.8125 3.3125 5 6 C2.5625 7.875 2.5625 7.875 0 9 C-0.66 8.67 -1.32 8.34 -2 8 C-1.34 7.01 -0.68 6.02 0 5 C0 4.67 0 4.34 0 4 C0 2.68 0 1.36 0 0 Z " fill="#C43A38" transform="translate(201,104)"/>
<path d="M0 0 C0 0.66 0 1.32 0 2 C-6.3778552 3.17293889 -12.50321562 4.29530838 -19 4 C-12.8121893 0.53482601 -6.94625504 -0.24372825 0 0 Z " fill="#F39491" transform="translate(283,3)"/>
<path d="M0 0 C0.33 0 0.66 0 1 0 C1.33 1.65 1.66 3.3 2 5 C7.28 5.33 12.56 5.66 18 6 C16 8 16 8 12.375 8.125 C11.26125 8.08375 10.1475 8.0425 9 8 C8.67 8.66 8.34 9.32 8 10 C7.34 10 6.68 10 6 10 C5.67 9.34 5.34 8.68 5 8 C4.01 8.33 3.02 8.66 2 9 C0 7 0 7 -0.125 3.375 C-0.08375 2.26125 -0.0425 1.1475 0 0 Z " fill="#CE3937" transform="translate(56,118)"/>
<path d="M0 0 C0 3.20395416 -0.74335022 5.09399739 -2 8 C-2.66 8 -3.32 8 -4 8 C-4 8.66 -4 9.32 -4 10 C-5.63064764 11.05771739 -7.30280873 12.05273046 -9 13 C-9.99 13.66 -10.98 14.32 -12 15 C-10.38462556 11.10082032 -7.72075127 8.28706228 -4.875 5.25 C-4.40707031 4.74339844 -3.93914062 4.23679687 -3.45703125 3.71484375 C-2.30873459 2.47280859 -1.15491328 1.23588506 0 0 Z " fill="#EF9F9E" transform="translate(213,65)"/>
<path d="M0 0 C1 2 1 2 0.375 5 C-1 8 -1 8 -3.25 9.0625 C-4.1575 9.371875 -5.065 9.68125 -6 10 C-8.11553423 11.55802874 -10.02796194 13.2572687 -12 15 C-10.38462556 11.10082032 -7.72075127 8.28706228 -4.875 5.25 C-4.40707031 4.74339844 -3.93914062 4.23679687 -3.45703125 3.71484375 C-2.30873459 2.47280859 -1.15491328 1.23588506 0 0 Z " fill="#F6A5A1" transform="translate(250,22)"/>
<path d="M0 0 C0.33 0.99 0.66 1.98 1 3 C-0.8873187 6.09520267 -2.41828382 7.71590605 -5.6875 9.3125 C-9.8451291 10.17540415 -13.77186491 10.1691254 -18 10 C-18 9.67 -18 9.34 -18 9 C-16.62714844 8.85304687 -16.62714844 8.85304687 -15.2265625 8.703125 C-14.03804687 8.55359375 -12.84953125 8.4040625 -11.625 8.25 C-10.44164063 8.11078125 -9.25828125 7.9715625 -8.0390625 7.828125 C-4.91072165 7.33312915 -4.91072165 7.33312915 -3.6875 5.03125 C-3.3471875 4.02578125 -3.3471875 4.02578125 -3 3 C-1.375 1.25 -1.375 1.25 0 0 Z " fill="#BB2724" transform="translate(77,136)"/>
<path d="M0 0 C0.99 0 1.98 0 3 0 C2.52354792 4.28806873 1.34097516 6.26647487 -2 9 C-2.66 9 -3.32 9 -4 9 C-4.66 7.68 -5.32 6.36 -6 5 C-5.38125 4.731875 -4.7625 4.46375 -4.125 4.1875 C-1.7004767 3.04443152 -1.7004767 3.04443152 0 0 Z " fill="#F3544E" transform="translate(110,131)"/>
<path d="M0 0 C0.99 0.33 1.98 0.66 3 1 C2.5206753 5.31392226 1.2542015 7.16569547 -2 10 C-2.66 9.67 -3.32 9.34 -4 9 C-3.47731534 6.23723823 -2.89130413 3.6739124 -2 1 C-1.34 0.67 -0.68 0.34 0 0 Z " fill="#F77E7B" transform="translate(108,79)"/>
<path d="M0 0 C0.66 0.66 1.32 1.32 2 2 C1.625 4.625 1.625 4.625 1 7 C0.34 7 -0.32 7 -1 7 C-1 6.34 -1 5.68 -1 5 C-2.65 5.66 -4.3 6.32 -6 7 C-6.33 6.01 -6.66 5.02 -7 4 C-4.35261084 2.5393715 -3.10551666 2 0 2 C0 1.34 0 0.68 0 0 Z " fill="#C12D2A" transform="translate(91,73)"/>
<path d="M0 0 C0.66 0 1.32 0 2 0 C1.91276622 1.77174819 1.80458345 3.54247377 1.6875 5.3125 C1.62949219 6.29863281 1.57148438 7.28476563 1.51171875 8.30078125 C1 11 1 11 -2 14 C-1.34 11.03 -0.68 8.06 0 5 C-1.32 5 -2.64 5 -4 5 C-3.67 4.01 -3.34 3.02 -3 2 C-2.01 2 -1.02 2 0 2 C0 1.34 0 0.68 0 0 Z " fill="#F4524A" transform="translate(283,3)"/>
<path d="M0 0 C2.91517292 1.07401108 4.77810176 1.77810176 7 4 C7.66 4 8.32 4 9 4 C9.33 6.31 9.66 8.62 10 11 C9.01 10.34 8.02 9.68 7 9 C7 8.34 7 7.68 7 7 C6.34 7 5.68 7 5 7 C3.7109375 5.46875 3.7109375 5.46875 2.375 3.5 C1.70597656 2.52546875 1.70597656 2.52546875 1.0234375 1.53125 C0.68570313 1.0259375 0.34796875 0.520625 0 0 Z " fill="#B53838" transform="translate(182,102)"/>
<path d="M0 0 C1.65 0 3.3 0 5 0 C4.67 0.99 4.34 1.98 4 3 C4.38932856 5.14255793 4.38932856 5.14255793 5 7 C2.69 6.01 0.38 5.02 -2 4 C-1.34 2.68 -0.68 1.36 0 0 Z " fill="#F58481" transform="translate(99,89)"/>
<path d="M0 0 C1 2 1 2 0 5.5 C-1.50825439 8.90596414 -1.8988917 8.9605849 -5.6875 10.4375 C-6.780625 10.623125 -7.87375 10.80875 -9 11 C-8.06558465 9.72689688 -7.12732889 8.456612 -6.1875 7.1875 C-5.66542969 6.47980469 -5.14335937 5.77210937 -4.60546875 5.04296875 C-3.16871123 3.21468607 -1.68184237 1.60103312 0 0 Z " fill="#E4504D" transform="translate(224,54)"/>
<path d="M0 0 C0.33 0.66 0.66 1.32 1 2 C1.66 2.33 2.32 2.66 3 3 C1.02 5.31 -0.96 7.62 -3 10 C-4 7 -4 7 -2.625 3.875 C-1 1 -1 1 0 0 Z " fill="#F3534A" transform="translate(253,20)"/>
<path d="M0 0 C1.46726798 3.81489674 0.43336419 6.29011622 -1 10 C-3.475 9.01 -3.475 9.01 -6 8 C-5.67 7.34 -5.34 6.68 -5 6 C-4.34 6 -3.68 6 -3 6 C-3 5.34 -3 4.68 -3 4 C-2.34 4 -1.68 4 -1 4 C-0.67 2.68 -0.34 1.36 0 0 Z " fill="#C62D2A" transform="translate(85,119)"/>
<path d="M0 0 C0 3.566745 -0.63691955 4.10543677 -2.9375 6.6875 C-3.48277344 7.31011719 -4.02804688 7.93273437 -4.58984375 8.57421875 C-5.05519531 9.04472656 -5.52054688 9.51523438 -6 10 C-6.33 10 -6.66 10 -7 10 C-7 8.02 -7 6.04 -7 4 C-6.030625 3.525625 -5.06125 3.05125 -4.0625 2.5625 C-1.19522563 1.29806053 -1.19522563 1.29806053 0 0 Z " fill="#DF9392" transform="translate(206,109)"/>
<path d="M0 0 C2 0 2 0 3.5625 1.375 C5 3 5 3 6 5 C6.66 5 7.32 5 8 5 C8.309375 5.78375 8.61875 6.5675 8.9375 7.375 C9.92875038 9.92330128 9.92875038 9.92330128 11 12 C7.3571729 10.52513858 5.59170887 8.55477485 3.25 5.4375 C2.63640625 4.63183594 2.0228125 3.82617188 1.390625 2.99609375 C0 1 0 1 0 0 Z " fill="#E3A7A8" transform="translate(187,109)"/>
<path d="M0 0 C-0.66 1.32 -1.32 2.64 -2 4 C-2.33 3.34 -2.66 2.68 -3 2 C-8.94 2 -14.88 2 -21 2 C-21 1.67 -21 1.34 -21 1 C-18.06255476 0.83231709 -15.12505096 0.66581142 -12.1875 0.5 C-11.35412109 0.45230469 -10.52074219 0.40460938 -9.66210938 0.35546875 C-8.85966797 0.31035156 -8.05722656 0.26523438 -7.23046875 0.21875 C-6.49207764 0.17685547 -5.75368652 0.13496094 -4.99291992 0.09179688 C-3.33009506 0.01520467 -1.6645879 0 0 0 Z " fill="#E85753" transform="translate(79,82)"/>
<path d="M0 0 C0.66 0.33 1.32 0.66 2 1 C2 2.65 2 4.3 2 6 C2.99 6.33 3.98 6.66 5 7 C4.01 7.495 4.01 7.495 3 8 C0.375 7.0625 0.375 7.0625 -2 6 C-1.125 1.125 -1.125 1.125 0 0 Z " fill="#BF2F2B" transform="translate(171,56)"/>
<path d="M0 0 C6.6440678 3.3220339 6.6440678 3.3220339 8.3125 6.5 C8.6528125 7.7375 8.6528125 7.7375 9 9 C9.65213539 10.34050052 10.31379969 11.67661368 11 13 C6.74418856 9.87072688 3.0800315 6.29722607 0 2 C0 1.34 0 0.68 0 0 Z " fill="#E5ACAB" transform="translate(164,82)"/>
<path d="M0 0 C0.66 0 1.32 0 2 0 C3.33333333 2 4.66666667 4 6 6 C5.34 6 4.68 6 4 6 C4 6.66 4 7.32 4 8 C2.0625 7.3125 2.0625 7.3125 0 6 C-0.8125 3.4375 -0.8125 3.4375 -1 1 C-0.67 0.67 -0.34 0.34 0 0 Z " fill="#B12628" transform="translate(166,78)"/>
<path d="M0 0 C0.99 0.33 1.98 0.66 3 1 C2.01 2.98 1.02 4.96 0 7 C-1.65 6.67 -3.3 6.34 -5 6 C-3.35 4.02 -1.7 2.04 0 0 Z " fill="#F34F4E" transform="translate(245,30)"/>
<path d="M0 0 C0.33 0.66 0.66 1.32 1 2 C2.98 1.67 4.96 1.34 7 1 C7 1.66 7 2.32 7 3 C5.46875 4.2890625 5.46875 4.2890625 3.5 5.625 C2.8503125 6.07101563 2.200625 6.51703125 1.53125 6.9765625 C1.0259375 7.31429687 0.520625 7.65203125 0 8 C-1.125 2.25 -1.125 2.25 0 0 Z " fill="#FA8E87" transform="translate(265,33)"/>
<path d="M0 0 C-1 3 -1 3 -2 5 C-3.32 4.67 -4.64 4.34 -6 4 C-6 2.68 -6 1.36 -6 0 C-3.50907189 -1.24546405 -2.58919267 -0.7767578 0 0 Z " fill="#C83535" transform="translate(182,67)"/>
<path d="M0 0 C1.98 1.65 3.96 3.3 6 5 C5.67 6.32 5.34 7.64 5 9 C4.67 8.34 4.34 7.68 4 7 C3.34 7 2.68 7 2 7 C2 6.34 2 5.68 2 5 C1.34 4.67 0.68 4.34 0 4 C0 2.68 0 1.36 0 0 Z " fill="#D77F7E" transform="translate(166,48)"/>
<path d="M0 0 C0 0.99 0 1.98 0 3 C-2.5 5.1875 -2.5 5.1875 -5 7 C-5 5.02 -5 3.04 -5 1 C-3.35 0.67 -1.7 0.34 0 0 Z " fill="#E98988" transform="translate(223,89)"/>
<path d="M0 0 C1.65 0.33 3.3 0.66 5 1 C4.34 2.32 3.68 3.64 3 5 C1.68 5 0.36 5 -1 5 C-1 4.34 -1 3.68 -1 3 C-0.34 3 0.32 3 1 3 C0.67 2.01 0.34 1.02 0 0 Z " fill="#F58A85" transform="translate(260,40)"/>
<path d="M0 0 C0.99 0.33 1.98 0.66 3 1 C2.34 1 1.68 1 1 1 C1 2.98 1 4.96 1 7 C-0.32 6.34 -1.64 5.68 -3 5 C-1.125 1.125 -1.125 1.125 0 0 Z " fill="#F74944" transform="translate(143,41)"/>
<path d="M0 0 C1.98 0 3.96 0 6 0 C6 1.32 6 2.64 6 4 C5.34 4 4.68 4 4 4 C4 3.34 4 2.68 4 2 C2.02 2.99 2.02 2.99 0 4 C0 2.68 0 1.36 0 0 Z " fill="#F35853" transform="translate(268,32)"/>
<path d="M0 0 C0.99 0.33 1.98 0.66 3 1 C4.1875 4.0625 4.1875 4.0625 5 7 C3.0625 6.3125 3.0625 6.3125 1 5 C0.25 2.375 0.25 2.375 0 0 Z " fill="#B35150" transform="translate(161,76)"/>
<path d="M0 0 C0.33 0 0.66 0 1 0 C1 1.65 1 3.3 1 5 C-0.32 5.33 -1.64 5.66 -3 6 C-3.99 4.68 -4.98 3.36 -6 2 C-3.525 2.99 -3.525 2.99 -1 4 C-0.67 2.68 -0.34 1.36 0 0 Z " fill="#F8BFBC" transform="translate(278,34)"/>
<path d="M0 0 C2.97 0.495 2.97 0.495 6 1 C5.01 2.485 5.01 2.485 4 4 C2.68 4 1.36 4 0 4 C0 2.68 0 1.36 0 0 Z " fill="#D2322A" transform="translate(201,104)"/>
<path d="M0 0 C2.31 1.98 4.62 3.96 7 6 C3 7 3 7 1 6 C0.375 2.9375 0.375 2.9375 0 0 Z " fill="#CB4745" transform="translate(191,79)"/>
<path d="M0 0 C0.33 1.32 0.66 2.64 1 4 C-0.32 4.99 -1.64 5.98 -3 7 C-3.66 6.67 -4.32 6.34 -5 6 C-3.35 4.02 -1.7 2.04 0 0 Z " fill="#E65655" transform="translate(230,47)"/>
</svg>
